<svg width="20" height="15" viewBox="0 0 20 15" fill="none" xmlns="http://www.w3.org/2000/svg">
<path d="M11 0C7.479 0 4.558 2.612 4.071 6H4C1.794 6 0 7.795 0 10V12C0 12.553 0.448 13 1 13H3.185C3.599 14.162 4.698 15 6 15C7.302 15 8.401 14.162 8.816 13H12.185C12.599 14.162 13.699 15 15 15C16.301 15 17.401 14.162 17.816 13H19C19.552 13 20 12.553 20 12V9C20 4.037 15.962 0 11 0ZM17.315 6H12V2.08C14.353 2.419 16.326 3.928 17.315 6ZM10 2.102V6H6.101C6.5 4.044 8.044 2.5 10 2.102ZM6 13C5.449 13 5 12.551 5 12C5 11.449 5.449 11 6 11C6.551 11 7 11.449 7 12C7 12.551 6.551 13 6 13ZM15 13C14.449 13 14 12.551 14 12C14 11.449 14.449 11 15 11C15.551 11 16 11.449 16 12C16 12.551 15.551 13 15 13ZM18 11H17.816C17.401 9.838 16.302 9 15 9C13.698 9 12.599 9.838 12.185 11H8.816C8.401 9.838 7.302 9 6 9C4.698 9 3.599 9.838 3.185 11H2V10C2 8.896 2.897 8 4 8H17.92C17.967 8.328 18 8.66 18 9V11Z" fill="#002340"/>
</svg>
