<svg width="24" height="25" viewBox="0 0 24 25" fill="none" xmlns="http://www.w3.org/2000/svg">
<path d="M10.966 17.0418H12.982V10.0418H10.966V17.0418Z" fill="#FFBA0F"/>
<path d="M11.092 8.07578C11.3347 8.30911 11.624 8.42578 11.96 8.42578C12.3054 8.42578 12.5994 8.30911 12.842 8.07578C13.0847 7.84244 13.206 7.56244 13.206 7.23578C13.206 6.90911 13.0847 6.62911 12.842 6.39578C12.5994 6.16244 12.3054 6.04578 11.96 6.04578C11.624 6.04578 11.3347 6.16244 11.092 6.39578C10.8494 6.62911 10.728 6.90911 10.728 7.23578C10.728 7.56244 10.8494 7.84244 11.092 8.07578Z" fill="#FFBA0F"/>
<path fill-rule="evenodd" clip-rule="evenodd" d="M24 12.0417C24 18.6692 18.6274 24.0417 12 24.0417C5.37258 24.0417 0 18.6692 0 12.0417C0 5.41433 5.37258 0.041748 12 0.041748C18.6274 0.041748 24 5.41433 24 12.0417ZM22 12.0417C22 17.5646 17.5228 22.0417 12 22.0417C6.47715 22.0417 2 17.5646 2 12.0417C2 6.5189 6.47715 2.04175 12 2.04175C17.5228 2.04175 22 6.5189 22 12.0417Z" fill="#FFBA0F"/>
</svg>
